<svg width="140" height="50" viewBox="0 0 140 50" fill="none" xmlns="http://www.w3.org/2000/svg">
  <path fill-rule="evenodd" clip-rule="evenodd"
    d="M98.1443 0C91.3501 -8.40327e-06 85.8368 5.4968 85.8368 12.2843V37.7157C85.8368 44.5032 91.3501 50 98.1443 50L124.08 50L124.08 42.3856L98.1443 42.3857C95.5547 42.3857 93.461 40.2918 93.461 37.7157V12.2843C93.461 9.7082 95.5547 7.61432 98.1443 7.61432L124.08 7.61435L124.08 3.4004e-05L98.1443 0ZM0 9.38041e-06L1.25562e-05 37.7157C1.25562e-05 44.5032 5.51334 50 12.3075 50H32.2255V42.3857H12.3075C9.71794 42.3857 7.62423 40.2918 7.62423 37.7157L7.62422 9.38041e-06H0ZM39.0781 9.38041e-06V37.7157C39.0781 44.5032 44.5914 50 51.3856 50H65.7216C72.5158 50 78.0291 44.5032 78.0291 37.7157V9.38041e-06H70.4049V37.7157C70.4049 40.2918 68.3111 42.3857 65.7216 42.3857H51.3856C48.796 42.3857 46.7023 40.2918 46.7023 37.7157V9.38041e-06H39.0781ZM131.48 3.63491e-05V50H139.104V6.6329C139.104 2.96662 136.126 3.63491e-05 132.46 3.63491e-05H131.48Z"
    fill="#F9F9F9" />
  <circle cx="101.876" cy="16.041" r="4.29782" fill="#DB5C0B" />
</svg>