<svg xmlns="http://www.w3.org/2000/svg" width="172" height="32" viewBox="0 0 172 32" fill="none">
	<g style="mix-blend-mode:darken">
		<path
			d="M162.739 11.6654L162.739 9.94498L165.203 9.94498L165.203 22.5985L162.745 22.5985L162.745 20.8695C162.671 20.9382 162.611 20.9936 162.551 21.048C161.766 21.7589 160.853 22.2398 159.806 22.4697C159.202 22.6033 158.59 22.6348 157.973 22.5728C156.707 22.444 155.605 21.9516 154.658 21.13C153.825 20.4077 153.235 19.5241 152.861 18.5012C152.673 17.986 152.553 17.4554 152.503 16.9106C152.39 15.6911 152.586 14.5203 153.128 13.4125C153.69 12.2618 154.526 11.3496 155.656 10.7026C156.337 10.3133 157.071 10.0681 157.856 9.98029C159.46 9.8009 160.896 10.2102 162.167 11.174C162.352 11.3133 162.519 11.4746 162.694 11.6253C162.705 11.6349 162.716 11.6454 162.738 11.6654L162.739 11.6654ZM162.383 16.2894C162.379 15.9001 162.343 15.528 162.245 15.1644C161.913 13.9412 161.198 13.0127 160.014 12.4631C159.314 12.1387 158.578 12.0585 157.82 12.2255C156.998 12.4058 156.321 12.8247 155.775 13.444C155.175 14.1253 154.85 14.9211 154.759 15.8123C154.701 16.381 154.742 16.943 154.904 17.4927C155.23 18.6005 155.889 19.4573 156.942 20.0022C157.658 20.3724 158.422 20.4898 159.218 20.3333C160.153 20.1491 160.901 19.6625 161.481 18.9316C162.099 18.1511 162.374 17.2551 162.384 16.2904L162.383 16.2894Z"
			fill="#020202" />
		<path
			d="M48.9756 14.4452L48.9756 22.6026L46.3224 22.6026L46.3224 15.0263C46.3224 14.1246 46.0425 13.4223 45.4865 12.9213C44.9304 12.4175 44.2416 12.1637 43.4304 12.1637C42.882 12.1637 42.3804 12.2811 41.9314 12.5101C41.4823 12.7381 41.125 13.0654 40.8699 13.4891C40.612 13.9118 40.4868 14.4165 40.4868 15.0015L40.4868 22.6035L37.805 22.6035L37.805 15.0272C37.805 14.1255 37.5327 13.4232 36.9833 12.9223C36.4349 12.4185 35.7528 12.1647 34.9426 12.1647C34.3751 12.1647 33.8706 12.282 33.4283 12.511C32.9859 12.7391 32.6362 13.0664 32.3821 13.49C32.1241 13.9127 31.999 14.4175 31.999 15.0024L31.999 22.6045L29.3171 22.6045L29.3171 9.93948L31.999 9.93948L31.999 11.3011C32.3525 10.8851 32.7767 10.5435 33.2697 10.2706C33.9958 9.87268 34.8098 9.67421 35.7126 9.67421C36.6155 9.67421 37.4219 9.86886 38.1365 10.2591C38.8435 10.6418 39.4043 11.1751 39.8276 11.8631C40.2881 11.1895 40.8814 10.6561 41.6142 10.2696C42.3661 9.87172 43.1906 9.67325 44.0935 9.67325C44.9963 9.67325 45.8142 9.86791 46.547 10.2582C47.2798 10.6484 47.8692 11.1961 48.3116 11.9137C48.7501 12.6274 48.9746 13.4738 48.9746 14.4452L48.9756 14.4452Z"
			fill="#020202" />
		<path
			d="M63.0396 12.7196C62.516 11.7845 61.8052 11.045 60.9023 10.4973C60.0033 9.94863 58.9676 9.67287 57.8001 9.67287C56.6326 9.67287 55.4756 9.96771 54.4839 10.5488C53.4932 11.1337 52.7078 11.9181 52.1221 12.9076C51.5403 13.8971 51.2489 15.0202 51.2489 16.2711C51.2489 17.5221 51.5432 18.6518 52.1365 19.649C52.7298 20.6499 53.5295 21.4333 54.5345 22.0077C55.5444 22.5822 56.6861 22.8684 57.9568 22.8684C58.9476 22.8684 59.8801 22.6842 60.7571 22.3131C61.6304 21.9419 62.3784 21.3932 62.9975 20.6719L61.2988 18.9753C60.8937 19.4352 60.4036 19.7806 59.8285 20.0201C59.2533 20.2596 58.6199 20.377 57.931 20.377C57.1352 20.377 56.4282 20.2043 55.8091 19.8618C55.19 19.5163 54.7113 19.0297 54.3759 18.4047C54.1916 18.0621 54.0588 17.6871 53.9776 17.2787L63.6596 17.2787C63.7151 17.0135 63.7514 16.7749 63.781 16.5612C63.8068 16.3513 63.8183 16.149 63.8183 15.9543C63.8183 14.7368 63.5603 13.6585 63.0367 12.7196L63.0396 12.7196ZM53.9871 15.0784C54.0645 14.7034 54.1858 14.3608 54.3521 14.0478C54.6693 13.4448 55.1221 12.9772 55.704 12.6423C56.2896 12.3074 56.968 12.1385 57.7485 12.1385C58.489 12.1385 59.1224 12.2893 59.6422 12.5908C60.1657 12.8885 60.5632 13.3227 60.8355 13.8856C61.0084 14.2387 61.1336 14.6366 61.2109 15.0774L53.9861 15.0774L53.9871 15.0784Z"
			fill="#020202" />
		<path
			d="M85.9193 14.4452L85.9193 22.6026L83.2661 22.6026L83.2661 15.0263C83.2661 14.1246 82.9861 13.4223 82.4301 12.9213C81.8741 12.4175 81.1881 12.1637 80.3741 12.1637C79.8257 12.1637 79.3279 12.2811 78.875 12.5101C78.425 12.7381 78.0715 13.0654 77.8136 13.4891C77.5594 13.9118 77.4305 14.4165 77.4305 15.0015L77.4305 22.6035L74.7515 22.6035L74.7515 15.0272C74.7515 14.1255 74.4754 13.4232 73.9298 12.9223C73.3805 12.4185 72.6993 12.1647 71.8853 12.1647C71.3216 12.1647 70.8171 12.282 70.3748 12.511C69.9324 12.7391 69.5827 13.0664 69.3248 13.49C69.0706 13.9127 68.9417 14.4175 68.9417 15.0024L68.9417 22.6045L66.2627 22.6045L66.2627 9.93948L68.9417 9.93948L68.9417 11.3049C69.2952 10.8889 69.7194 10.5435 70.2162 10.2706C70.9385 9.87268 71.7525 9.67421 72.6553 9.67421C73.5582 9.67421 74.3645 9.86886 75.083 10.2591C75.7871 10.6418 76.347 11.1751 76.7703 11.8631C77.2308 11.1895 77.8279 10.6561 78.5569 10.2696C79.3088 9.87172 80.1333 9.67325 81.0362 9.67325C81.939 9.67325 82.7568 9.86791 83.4896 10.2582C84.2224 10.6484 84.8129 11.1961 85.2543 11.9137C85.6966 12.6274 85.9173 13.4738 85.9173 14.4452L85.9193 14.4452Z"
			fill="#020202" />
		<path
			d="M94.8319 22.868C93.5937 22.868 92.4749 22.5722 91.4765 21.9806C90.4772 21.389 89.6813 20.5941 89.089 19.5961C88.4966 18.598 88.2004 17.4816 88.2004 16.2449C88.2004 15.0083 88.4966 13.9005 89.089 12.9196C89.6813 11.9396 90.4772 11.1533 91.4765 10.5617C92.4749 9.97014 93.5937 9.67435 94.8319 9.67435C96.0701 9.67435 97.188 9.96537 98.1873 10.5484C99.1867 11.1314 99.9816 11.9177 100.575 12.9062C101.167 13.8957 101.463 15.0083 101.463 16.244C101.463 17.4796 101.167 18.598 100.575 19.5951C99.9825 20.5932 99.1867 21.388 98.1873 21.9796C97.188 22.5712 96.0692 22.867 94.8319 22.867L94.8319 22.868ZM94.8319 20.3251C95.5924 20.3251 96.2641 20.1485 96.8478 19.7955C97.4316 19.4424 97.8911 18.9567 98.2274 18.3384C98.5628 17.7201 98.7319 17.0226 98.7319 16.2459C98.7319 15.4692 98.5637 14.7802 98.2274 14.1791C97.8911 13.5789 97.4316 13.1066 96.8478 12.7621C96.2641 12.4177 95.5915 12.2459 94.8319 12.2459C94.0724 12.2459 93.4217 12.4177 92.8294 12.7621C92.237 13.1066 91.7727 13.5789 91.4364 14.1791C91.1001 14.7793 90.9319 15.4682 90.9319 16.2459C90.9319 17.0235 91.1001 17.7211 91.4364 18.3384C91.7718 18.9567 92.2361 19.4424 92.8294 19.7955C93.4217 20.1485 94.0896 20.3251 94.8319 20.3251Z"
			fill="#020202" />
		<path
			d="M113.187 11.1332L111.437 12.9328C111.19 12.6494 110.917 12.4509 110.615 12.3364C110.313 12.2219 109.959 12.1637 109.553 12.1637C108.721 12.1637 108.031 12.4395 107.483 12.9843C106.937 13.533 106.661 14.3641 106.661 15.4757L106.661 22.6035L103.982 22.6035L103.982 9.93852L106.661 9.93852L106.661 11.3336L106.794 11.1456C107.52 10.1666 108.6 9.67325 110.033 9.67325C110.652 9.67325 111.22 9.79062 111.742 10.0187C112.266 10.2505 112.744 10.6189 113.187 11.1332Z"
			fill="#020202" />
		<path d="M114.728 22.6036L114.728 9.93953L117.38 9.93953L117.38 22.6036L114.728 22.6036Z" fill="#020202" />
		<path
			d="M131.745 12.7196C131.222 11.7845 130.511 11.045 129.608 10.4973C128.705 9.94863 127.673 9.67287 126.506 9.67287C125.338 9.67287 124.181 9.96771 123.19 10.5488C122.199 11.1337 121.411 11.9181 120.828 12.9076C120.246 13.8971 119.951 15.0202 119.951 16.2711C119.951 17.5221 120.249 18.6518 120.842 19.649C121.432 20.6499 122.235 21.4333 123.24 22.0077C124.25 22.5822 125.388 22.8684 126.663 22.8684C127.653 22.8684 128.586 22.6842 129.463 22.3131C130.336 21.9419 131.084 21.3932 131.703 20.6719L130.005 18.9753C129.6 19.4352 129.109 19.7806 128.534 20.0201C127.959 20.2596 127.326 20.377 126.637 20.377C125.841 20.377 125.134 20.2043 124.515 19.8618C123.896 19.5163 123.417 19.0297 123.082 18.4047C122.897 18.0621 122.765 17.6871 122.683 17.2787L132.366 17.2787C132.417 17.0135 132.457 16.7749 132.484 16.5612C132.514 16.3513 132.524 16.149 132.524 15.9543C132.524 14.7368 132.262 13.6585 131.743 12.7196L131.745 12.7196ZM122.689 15.0784C122.767 14.7034 122.892 14.3608 123.058 14.0478C123.375 13.4448 123.828 12.9772 124.41 12.6423C124.992 12.3074 125.674 12.1385 126.451 12.1385C127.227 12.1385 127.828 12.2893 128.348 12.5908C128.872 12.8885 129.269 13.3227 129.542 13.8856C129.715 14.2387 129.84 14.6366 129.918 15.0774L122.689 15.0774L122.689 15.0784Z"
			fill="#020202" />
		<path
			d="M139.057 22.868C138.368 22.868 137.7 22.7754 137.055 22.5894C136.409 22.4042 135.817 22.139 135.278 21.7945C134.738 21.4501 134.265 21.0397 133.859 20.5626L135.557 18.867C136.016 19.3966 136.543 19.7945 137.135 20.0588C137.727 20.3241 138.386 20.4567 139.111 20.4567C139.836 20.4567 140.353 20.347 140.716 20.1256C141.078 19.9052 141.26 19.5827 141.26 19.159C141.26 18.7354 141.1 18.4043 140.782 18.1657C140.464 17.9272 140.048 17.7335 139.535 17.5827C139.022 17.4329 138.487 17.2735 137.93 17.1056C137.373 16.9377 136.838 16.7211 136.325 16.4567C135.812 16.1915 135.396 15.8213 135.078 15.3442C134.76 14.8671 134.6 14.2583 134.6 13.5159C134.6 12.7211 134.786 12.0417 135.157 11.4759C135.529 10.911 136.055 10.4692 136.736 10.1514C137.416 9.8337 138.235 9.67435 139.189 9.67435C140.197 9.67435 141.09 9.85564 141.868 10.2173C142.646 10.5799 143.292 11.1142 143.805 11.8203L142.107 13.5159C141.735 13.0388 141.302 12.6858 140.807 12.4558C140.312 12.2268 139.745 12.1113 139.109 12.1113C138.473 12.1113 137.982 12.2135 137.637 12.4157C137.292 12.619 137.12 12.9148 137.12 13.3031C137.12 13.6915 137.283 13.9701 137.611 14.1905C137.938 14.4119 138.353 14.5923 138.858 14.7335C139.362 14.8747 139.896 15.0293 140.463 15.1972C141.028 15.3652 141.568 15.5951 142.081 15.8861C142.594 16.1772 143.01 16.5617 143.328 17.0388C143.646 17.5159 143.806 18.1428 143.806 18.9195C143.806 20.138 143.382 21.1008 142.532 21.8069C141.683 22.514 140.525 22.867 139.057 22.867L139.057 22.868Z"
			fill="#020202" />
		<path d="M169.082 22.6036L169.082 9.93953L171.734 9.93953L171.734 22.6036L169.082 22.6036Z" fill="#020202" />
		<path
			d="M116.053 7.44278C116.932 7.44278 117.645 6.73105 117.645 5.85309C117.645 4.97513 116.932 4.2634 116.053 4.2634C115.174 4.2634 114.461 4.97513 114.461 5.85309C114.461 6.73105 115.174 7.44278 116.053 7.44278Z"
			fill="#020202" />
		<path
			d="M148.502 22.8683C149.381 22.8683 150.094 22.1566 150.094 21.2786C150.094 20.4007 149.381 19.6889 148.502 19.6889C147.623 19.6889 146.911 20.4007 146.911 21.2786C146.911 22.1566 147.623 22.8683 148.502 22.8683Z"
			fill="#020202" />
		<path
			d="M170.408 7.44278C171.287 7.44278 172 6.73105 172 5.85309C172 4.97513 171.287 4.2634 170.408 4.2634C169.529 4.2634 168.817 4.97513 168.817 5.85309C168.817 6.73105 169.529 7.44278 170.408 7.44278Z"
			fill="#020202" />
		<path
			d="M22.4692 9.52252V26.7117L12.7591 23.4035L18.7704 8.22918L22.4692 9.52252ZM18.4175 4.22463L12.9454 18.0824L1 18.0593L14.8696 4.22463H18.4175Z"
			fill="#020202" />
	</g>
</svg>