<svg xmlns="http://www.w3.org/2000/svg" viewBox="0 0 240 48" fill="none">
  <path d="M12.4 38.2C9.1 38.2 6.8 36.3 5 33.2L0 24.1C-0.1 23.9 0 23.6 0.2 23.5C0.4 23.3 0.7 23.4 0.8 23.6L5.8 32.7C7.4 35.5 9.5 37.2 12.4 37.2C16.2 37.2 19 34 21.5 29.4C24.3 24.3 27.2 17 32.6 17C36 17 38.5 19.3 40.4 22.8L45.2 31.5C45.3 31.7 45.2 32 45 32.1C44.8 32.2 44.5 32.2 44.4 32L39.6 23.3C37.9 20.1 35.7 18 32.6 18C28.5 18 25.8 24.3 22.3 30C19.8 34.6 16.8 38.2 12.4 38.2Z" fill="#0668E1"/>
  <path d="M32.6 38.2C28 38.2 25 34 22.3 29.4C19.5 24.3 16.5 17 12.4 17C8.6 17 5.8 20.2 3.3 24.8C0.5 29.9 -2.4 37.2 -7.8 37.2C-11.2 37.2 -13.7 34.9 -15.6 31.4L-20.4 22.7C-20.5 22.5 -20.4 22.2 -20.2 22.1C-20 22 -19.7 22 -19.6 22.2L-14.8 30.9C-13.1 34.1 -10.9 36.2 -7.8 36.2C-3.7 36.2 -1 29.9 2.5 24.2C5 19.6 8 16 12.4 16C16.8 16 19.8 20.2 22.5 24.8C25.3 29.9 28.3 37.2 32.6 37.2C35.9 37.2 38.7 34.2 41.2 29.6L46.2 20.5C46.3 20.3 46.6 20.2 46.8 20.3C47 20.5 47.1 20.7 47 20.9L42 30C39.3 34.8 36.3 38.2 32.6 38.2Z" fill="#0668E1"/>
  <text x="55" y="35" font-family="system-ui, -apple-system, sans-serif" font-size="30" font-weight="400" fill="#0668E1">Meta</text>
</svg>